<?xml version="1.0" encoding="UTF-8"?>
<svg xmlns="http://www.w3.org/2000/svg" xmlns:xlink="http://www.w3.org/1999/xlink" width="512px" height="512px" viewBox="0 0 512 512" version="1.1">
<g id="surface1">
<path style=" stroke:none;fill-rule:nonzero;fill:rgb(0%,0%,0%);fill-opacity:1;" d="M 90.601562 357.882812 L 64.488281 357.882812 C 57.199219 357.882812 52.449219 352.644531 50.230469 342.144531 C 48.007812 331.65625 45.476562 312.484375 42.636719 284.640625 L 32.777344 311.277344 C 31.179688 316.117188 29.667969 320.457031 28.246094 324.289062 C 26.824219 328.128906 25.316406 330.039062 23.714844 330.039062 C 17.675781 330.039062 12.210938 328.222656 7.328125 324.59375 C 2.4375 320.960938 0 312.484375 0 299.171875 C 0 279.800781 2.132812 262.757812 6.394531 248.023438 C 10.65625 233.296875 20.515625 216.042969 35.972656 196.269531 C 35.613281 189.820312 35.214844 182.859375 34.773438 175.386719 C 34.328125 167.921875 34.109375 161.976562 34.109375 157.53125 C 34.109375 151.082031 35.527344 144.921875 38.371094 139.066406 C 41.210938 133.222656 43.96875 127.472656 46.632812 121.816406 C 48.230469 139.972656 49.695312 161.066406 51.027344 185.070312 C 52.363281 209.082031 53.695312 230.675781 55.027344 249.835938 C 56.359375 269.007812 57.691406 280.808594 59.023438 285.246094 C 60.355469 289.691406 64.21875 291.902344 70.613281 291.902344 L 90.601562 291.902344 Z M 3.464844 83.683594 L 14.121094 41.3125 L 30.109375 65.527344 L 38.90625 33.292969 L 54.894531 60.597656 L 45.566406 100.027344 L 29.578125 74.601562 L 19.453125 109.710938 Z M 39.96875 254.375 L 37.574219 218.058594 C 33.664062 223.714844 29.355469 230.164062 24.648438 237.425781 C 19.941406 244.6875 17.585938 251.347656 17.585938 257.398438 C 17.585938 260.636719 19.671875 263.359375 23.847656 265.570312 C 28.019531 267.792969 31.265625 268.898438 33.574219 268.898438 L 38.90625 268.898438 C 40.144531 267.6875 40.769531 265.476562 40.769531 262.242188 Z M 39.96875 254.375 "/>
<path style=" stroke:none;fill-rule:nonzero;fill:rgb(0%,0%,0%);fill-opacity:1;" d="M 66.082031 292.511719 L 89.265625 292.511719 C 100.460938 292.511719 107.609375 290.96875 110.71875 287.886719 C 113.824219 284.800781 117.957031 275.25 123.109375 259.21875 L 124.707031 259.21875 C 125.773438 274.589844 126.617188 283.230469 127.238281 285.148438 C 127.859375 287.070312 130.835938 289.519531 136.167969 292.507812 L 166.011719 292.507812 L 166.011719 358.484375 L 135.632812 358.484375 C 127.640625 356.847656 123.152344 354.597656 122.175781 351.71875 C 121.199219 348.84375 118.667969 338.792969 114.582031 321.558594 C 110.492188 335.917969 107.386719 345.667969 105.253906 350.792969 C 103.125 355.921875 97.527344 358.484375 88.46875 358.484375 L 66.082031 358.484375 Z M 87.667969 431.636719 L 97.527344 391.78125 L 114.316406 418.414062 L 123.375 383.304688 L 139.363281 410.542969 L 129.238281 451.703125 L 112.984375 426.277344 L 104.457031 458.8125 Z M 87.667969 431.636719 "/>
<path style=" stroke:none;fill-rule:nonzero;fill:rgb(0%,0%,0%);fill-opacity:1;" d="M 141.761719 291.90625 L 173.738281 291.90625 C 179.066406 291.90625 183.90625 290.902344 188.261719 288.875 C 192.613281 286.851562 194.789062 283.015625 194.789062 277.359375 C 194.789062 275.34375 193.097656 269.792969 189.726562 260.691406 C 186.351562 251.601562 184.664062 245.4375 184.664062 242.203125 C 184.664062 238.164062 185.0625 234.125 185.863281 230.089844 C 186.660156 226.050781 187.234375 223.015625 187.59375 220.992188 L 196.921875 176.140625 C 199.941406 193.109375 202.339844 208.25 204.117188 221.578125 C 205.890625 234.914062 206.78125 247.832031 206.78125 260.347656 C 206.78125 300.742188 203.226562 327.101562 196.121094 339.410156 C 189.011719 351.726562 179.421875 357.882812 167.34375 357.882812 L 141.761719 357.882812 Z M 179.867188 420.136719 L 189.992188 383.910156 L 206.78125 409.269531 L 195.855469 444.289062 Z M 179.867188 420.136719 "/>
<path style=" stroke:none;fill-rule:nonzero;fill:rgb(0%,0%,0%);fill-opacity:1;" d="M 332.289062 358.492188 L 301.644531 358.492188 C 297.914062 400.53125 292.804688 436.761719 286.324219 467.199219 C 279.835938 497.625 269.308594 512.839844 254.746094 512.839844 C 250.125 512.839844 245.726562 511.121094 241.554688 507.695312 C 237.378906 504.261719 229.699219 494.878906 218.507812 479.550781 L 220.371094 471.679688 C 224.105469 472.890625 227.835938 474.101562 231.5625 475.3125 C 244.355469 475.3125 255.234375 466.363281 264.207031 448.5 C 273.175781 430.613281 282.992188 406.003906 293.652344 374.671875 C 289.5625 361.003906 286.722656 351.367188 285.125 345.738281 C 283.527344 340.121094 280.328125 327.257812 275.53125 307.167969 L 289.921875 253.011719 C 294.359375 269.066406 297.914062 279.65625 300.582031 284.800781 C 303.246094 289.949219 306.441406 292.507812 310.171875 292.507812 L 332.289062 292.507812 Z M 332.289062 358.492188 "/>
<path style=" stroke:none;fill-rule:nonzero;fill:rgb(0%,0%,0%);fill-opacity:1;" d="M 310.4375 291.90625 L 330.6875 291.90625 C 334.953125 290.695312 339.125 289.386719 343.214844 287.972656 C 347.296875 286.5625 351.5625 284.039062 356.003906 280.40625 C 353.339844 274.761719 350.582031 270.523438 347.742188 267.695312 C 344.898438 264.875 340.816406 261.640625 335.484375 258.011719 C 337.4375 236.21875 340.636719 217.253906 345.078125 201.109375 C 349.519531 184.972656 358.042969 176.898438 370.660156 176.898438 C 379.011719 176.898438 386.292969 182.449219 392.511719 193.542969 C 398.730469 204.644531 401.839844 219.066406 401.839844 236.820312 C 401.839844 249.742188 400.773438 258.820312 398.640625 264.058594 C 396.507812 269.308594 392.421875 275.96875 386.382812 284.035156 C 393.496094 289.285156 400.335938 291.902344 406.902344 291.902344 L 426.621094 291.902344 L 426.621094 357.878906 L 406.902344 357.878906 C 398.550781 354.652344 391.488281 347.085938 385.714844 335.179688 C 379.941406 323.28125 374.832031 312.691406 370.394531 303.402344 C 366.484375 309.058594 361.601562 317.53125 355.738281 328.824219 C 349.875 340.128906 346.144531 346.890625 344.546875 349.101562 C 342.949219 351.324219 340.949219 353.140625 338.550781 354.546875 C 336.152344 355.964844 333.527344 357.074219 330.6875 357.878906 L 310.4375 357.878906 Z M 310.4375 291.90625 "/>
<path style=" stroke:none;fill-rule:nonzero;fill:rgb(0%,0%,0%);fill-opacity:1;" d="M 406.101562 291.90625 L 433.015625 291.90625 C 439.585938 291.90625 443.714844 289.785156 445.40625 285.550781 C 447.09375 281.3125 447.9375 272.121094 447.9375 257.992188 C 447.9375 246.28125 446.558594 220.652344 443.808594 181.078125 C 441.050781 141.515625 438.253906 100.535156 435.410156 58.136719 C 435.410156 41.992188 436.386719 30.585938 438.34375 23.929688 C 440.296875 17.273438 443.847656 9.289062 449.003906 0 C 453.621094 18.167969 458.503906 34.3125 463.660156 48.441406 C 459.75 58.542969 457.085938 66.214844 455.664062 71.464844 C 454.242188 76.714844 453.535156 85.992188 453.535156 99.308594 C 453.535156 107.382812 454.90625 133.128906 457.664062 176.519531 C 460.417969 219.921875 461.792969 247.078125 461.792969 257.972656 C 461.792969 288.257812 459.171875 312.480469 453.933594 330.636719 C 448.691406 348.804688 440.828125 357.882812 430.351562 357.882812 L 406.101562 357.882812 Z M 406.101562 291.90625 "/>
<path style=" stroke:none;fill-rule:nonzero;fill:rgb(0%,0%,0%);fill-opacity:1;" d="M 500.964844 357.882812 C 500.964844 336.046875 500.300781 312.183594 498.96875 286.300781 C 497.632812 260.414062 495.542969 223.40625 492.707031 175.273438 C 489.859375 127.140625 488.441406 98.21875 488.441406 88.519531 C 488.441406 73.957031 490.660156 60.609375 495.101562 48.472656 C 498.835938 39.984375 501.585938 33.3125 503.363281 28.453125 C 503.363281 43.414062 504.296875 74.257812 506.164062 120.96875 C 508.027344 167.6875 510.027344 215.109375 512.160156 263.242188 C 512.160156 276.59375 511.535156 292.875 510.292969 312.082031 C 509.046875 331.300781 507.449219 346.566406 505.496094 357.886719 L 500.964844 357.886719 Z M 500.964844 357.882812 "/>
</g>
</svg>
